<svg width="1685" height="242" viewBox="0 0 1685 242" fill="none" xmlns="http://www.w3.org/2000/svg">
<rect width="263.221" height="242" rx="46" fill="#FAFF00"/>
<ellipse cx="248" cy="121" rx="145" ry="121" fill="#FAFF00"/>
<path d="M279.532 204.558L251.422 183.903C260.902 174.309 269.525 160.647 277.771 145.2L305.881 165.855C294.649 179.108 285.134 192.114 279.532 204.558Z" fill="black"/>
<path d="M279.559 182.642C284.071 182.642 287.728 178.757 287.728 173.966C287.728 169.175 284.071 165.291 279.559 165.291C275.047 165.291 271.39 169.175 271.39 173.966C271.39 178.757 275.047 182.642 279.559 182.642Z" fill="black"/>
<path opacity="0.2" d="M145.225 111.411C145.225 111.654 145.13 111.886 144.96 112.057C144.789 112.228 144.559 112.325 144.318 112.325C144.077 112.325 143.846 112.228 143.676 112.057C143.506 111.886 143.41 111.654 143.41 111.411" fill="black"/>
<path d="M241.679 155.245H236.657C236.481 155.245 236.311 155.33 236.186 155.48C236.062 155.63 235.991 155.833 235.991 156.045V158.695C235.991 158.907 236.062 159.11 236.186 159.26C236.311 159.411 236.481 159.495 236.657 159.495H237.489V163.464H240.847V159.495H241.679C241.856 159.495 242.025 159.411 242.15 159.26C242.275 159.11 242.345 158.907 242.345 158.695V156.045C242.345 155.833 242.275 155.63 242.15 155.48C242.025 155.33 241.856 155.245 241.679 155.245V155.245Z" fill="black"/>
<path d="M248.081 178.927C244.565 173.563 242.768 167.176 242.947 160.681C242.95 160.531 242.903 160.385 242.815 160.267C242.726 160.149 242.601 160.066 242.461 160.033V158.898H236.398V160.018H236.315C236.233 160.018 236.152 160.035 236.077 160.067C236.001 160.1 235.933 160.148 235.875 160.208C235.817 160.269 235.772 160.34 235.74 160.419C235.709 160.498 235.693 160.582 235.693 160.667C235.693 160.683 235.694 160.699 235.695 160.714C236.173 167.657 234.56 173.883 230.857 179.392C230.643 179.709 230.535 180.089 230.546 180.476L231.209 201.859C231.225 202.336 231.417 202.788 231.745 203.121C232.073 203.454 232.512 203.641 232.969 203.645H246.682C247.145 203.641 247.588 203.449 247.917 203.11C248.246 202.77 248.435 202.31 248.443 201.827L248.698 181.066C248.706 180.304 248.491 179.558 248.081 178.927V178.927Z" fill="black"/>
<path opacity="0.2" d="M241.437 156.158C241.437 156.643 241.246 157.107 240.906 157.45C240.565 157.792 240.104 157.985 239.622 157.985C239.141 157.985 238.679 157.792 238.338 157.45C237.998 157.107 237.807 156.643 237.807 156.158" fill="black"/>
<path d="M245.724 186.294H234.428C234.261 186.294 234.096 186.334 233.944 186.411C233.792 186.488 233.657 186.6 233.548 186.74C233.439 186.88 233.359 187.044 233.313 187.221C233.267 187.398 233.256 187.584 233.282 187.767L234.989 199.992H244.79L246.863 187.808C246.895 187.623 246.889 187.433 246.846 187.252C246.803 187.07 246.725 186.901 246.616 186.756C246.507 186.612 246.371 186.495 246.217 186.416C246.062 186.336 245.894 186.294 245.724 186.294V186.294Z" fill="black"/>
<path d="M226.007 204.558H191.516C193.928 191.275 193.373 175.235 191.516 157.985H226.007C224.2 175.235 223.66 191.275 226.007 204.558Z" fill="black"/>
<path d="M208.762 188.121C213.273 188.121 216.931 184.441 216.931 179.902C216.931 175.363 213.273 171.683 208.762 171.683C204.25 171.683 200.593 175.363 200.593 179.902C200.593 184.441 204.25 188.121 208.762 188.121Z" fill="black"/>
<path d="M85.32 56.6189L93.64 55.8883L98.9349 43.4689L89.4802 38.3547L85.32 56.6189Z" fill="black"/>
<path d="M155.815 90.4957C156.063 89.8746 156.161 89.2032 156.1 88.5368C156.039 87.8705 155.821 87.2283 155.464 86.6631C155.107 86.098 154.621 85.626 154.047 85.2862C153.473 84.9463 152.826 84.7483 152.161 84.7085L140.577 84.0151L138.872 89.7087L150.797 92.9964C151.793 93.2711 152.855 93.168 153.781 92.7068C154.707 92.2456 155.431 91.4585 155.815 90.4957V90.4957Z" fill="black"/>
<path d="M144.318 93.1472L144.184 81.6431L117.17 77.2051L96.3585 52.6307C95.2757 51.3521 93.7795 50.5209 92.1471 50.2911C90.5147 50.0613 88.8567 50.4484 87.4803 51.3807C86.6469 51.9452 85.9441 52.6913 85.4216 53.5662C84.899 54.4411 84.5695 55.4236 84.4563 56.444C84.3431 57.4645 84.449 58.498 84.7665 59.4717C85.0839 60.4454 85.6052 61.3354 86.2935 62.0789L103.463 83.833L144.318 93.1472Z" fill="black"/>
<path d="M79.874 220.996H86.8149L104.031 139.795L121.867 164.88L132.278 219.186H138.872L137.484 160.897L114.232 98.6264H91.3265C85.0672 110.444 80.157 122.626 85.7738 135.193L79.874 220.996Z" fill="black"/>
<path d="M128.066 225.541C127.986 225.792 127.961 226.057 127.994 226.317C128.026 226.578 128.115 226.83 128.254 227.054C128.394 227.279 128.58 227.472 128.801 227.62C129.023 227.769 129.273 227.869 129.537 227.915L147.232 230.995C147.932 231.12 148.654 230.991 149.262 230.63C149.87 230.27 150.323 229.703 150.535 229.038V229.038C150.742 228.402 150.713 227.715 150.454 227.098C150.195 226.481 149.723 225.973 149.12 225.664C145.229 223.705 141.881 220.85 139.362 217.343C137.417 219.119 135.243 218.952 132.935 217.644L130.487 217.944L128.066 225.541Z" fill="black"/>
<path d="M76.3293 225.541C76.2493 225.792 76.2248 226.057 76.2573 226.317C76.2898 226.578 76.3787 226.83 76.5179 227.054C76.6571 227.279 76.8436 227.472 77.0648 227.62C77.286 227.769 77.5369 227.869 77.8008 227.915L95.4959 230.995C96.1951 231.12 96.917 230.991 97.5254 230.63C98.1338 230.27 98.5867 229.703 98.7987 229.038V229.038C99.0049 228.402 98.9761 227.715 98.7173 227.098C98.4586 226.481 97.9863 225.973 97.3836 225.664C93.4929 223.705 90.1444 220.85 87.6251 217.343C85.6803 219.119 83.5066 218.952 81.1984 217.644L78.7501 217.944L76.3293 225.541Z" fill="black"/>
<path d="M98.9349 47.4868C104.449 47.4868 108.919 42.9894 108.919 37.4415C108.919 31.8937 104.449 27.3962 98.9349 27.3962C93.4207 27.3962 88.9506 31.8937 88.9506 37.4415C88.9506 42.9894 93.4207 47.4868 98.9349 47.4868Z" fill="black"/>
<path d="M90.2619 101.366L115.273 100.638L107.928 76.0759C112.492 68.3009 107.898 60.5338 101.397 52.7683L96.2576 49.1281L88.0349 48.4C84.4747 52.4476 82.5268 57.8018 82.5989 63.3413C82.7617 75.2032 84.7385 88.116 90.2619 101.366Z" fill="black"/>
<path d="M157.051 96.9685C157.271 96.2948 157.334 95.5765 157.234 94.8727C157.134 94.169 156.874 93.4999 156.475 92.9207C156.076 92.3415 155.551 91.8688 154.941 91.5415C154.332 91.2141 153.656 91.0415 152.969 91.0379L141.017 90.9754L139.582 97.1184L152.029 99.9149C153.069 100.149 154.156 99.9774 155.082 99.434C156.008 98.8906 156.709 98.013 157.051 96.9685V96.9685Z" fill="black"/>
<path d="M145.243 100.157L145.238 88.7985L118.788 84.1012L98.6429 59.5975C97.5948 58.3226 96.1362 57.4845 94.5374 57.2385C92.9387 56.9926 91.308 57.3553 89.9476 58.2597V58.2597C89.1239 58.8072 88.4263 59.5355 87.9042 60.3931C87.382 61.2507 87.048 62.2167 86.9258 63.2228C86.8035 64.2289 86.8961 65.2505 87.1968 66.2154C87.4975 67.1804 87.9991 68.0651 88.6661 68.8071L105.269 90.484L145.243 100.157Z" fill="black"/>
<path d="M82.597 33.8101C82.597 37.6943 85.0826 43.7095 88.2178 46.288C90.3272 48.0229 93.115 47.9498 94.1899 45.575C95.2925 43.1388 99.0932 37.4124 105.783 33.8101C114.7 29.0081 102.62 20.7926 94.1899 22.0453C87.8549 22.9866 82.597 27.3126 82.597 33.8101Z" fill="black"/>
<path d="M88.4968 28.3094C92.2564 28.3094 95.3042 25.0386 95.3042 21.0038C95.3042 16.969 92.2564 13.6981 88.4968 13.6981C84.7371 13.6981 81.6893 16.969 81.6893 21.0038C81.6893 25.0386 84.7371 28.3094 88.4968 28.3094Z" fill="black"/>
<path d="M96.8874 18.2642C96.8866 16.4223 96.1618 14.6488 94.8583 13.2991C93.5547 11.9494 91.7687 11.1232 89.8583 10.9862C90.0471 10.9726 90.2358 10.9585 90.4282 10.9585C92.4436 10.9585 94.3764 11.7282 95.8015 13.0983C97.2266 14.4683 98.0272 16.3266 98.0272 18.2642C98.0272 20.2017 97.2266 22.06 95.8015 23.43C94.3764 24.8001 92.4436 25.5698 90.4282 25.5698C90.2358 25.5698 90.0471 25.5557 89.8583 25.5421C91.7687 25.4051 93.5547 24.5789 94.8583 23.2292C96.1618 21.8795 96.8866 20.106 96.8874 18.2642Z" fill="black"/>
<path d="M98.9349 41.0943C99.9374 41.0943 100.75 40.2766 100.75 39.2679C100.75 38.2592 99.9374 37.4415 98.9349 37.4415C97.9323 37.4415 97.1195 38.2592 97.1195 39.2679C97.1195 40.2766 97.9323 41.0943 98.9349 41.0943Z" fill="black"/>
<path d="M296.805 208.211H187.949L164.898 94.5923H145.225V89.4943H168.861L191.913 203.113H296.805V208.211Z" fill="black"/>
<path d="M204.223 228.302C210.239 228.302 215.115 223.396 215.115 217.343C215.115 211.291 210.239 206.385 204.223 206.385C198.208 206.385 193.331 211.291 193.331 217.343C193.331 223.396 198.208 228.302 204.223 228.302Z" fill="black"/>
<path d="M282.282 228.302C288.297 228.302 293.174 223.396 293.174 217.343C293.174 211.291 288.297 206.385 282.282 206.385C276.267 206.385 271.39 211.291 271.39 217.343C271.39 223.396 276.267 228.302 282.282 228.302Z" fill="black"/>
<path d="M295.14 205.472H189.312L170.64 109.585H312.663C313.388 109.585 314.104 109.748 314.762 110.063C315.421 110.378 316.005 110.838 316.476 111.41C316.947 111.982 317.293 112.654 317.491 113.379C317.688 114.103 317.732 114.864 317.62 115.608L300.096 201.067C299.916 202.297 299.316 203.418 298.406 204.227C297.496 205.035 296.337 205.477 295.14 205.472V205.472ZM190.462 204.021H295.14C296.004 204.025 296.841 203.706 297.497 203.122C298.154 202.539 298.587 201.73 298.717 200.842L316.24 115.382C316.322 114.845 316.29 114.296 316.148 113.773C316.005 113.25 315.755 112.766 315.415 112.353C315.076 111.94 314.653 111.608 314.178 111.381C313.703 111.153 313.186 111.035 312.663 111.035H172.334L190.462 204.021Z" fill="black"/>
<path d="M209.291 204.558L197.87 110.732L199.156 110.498L210.577 204.324L209.291 204.558Z" fill="black"/>
<path d="M245.068 110.498H243.253V204.558H245.068V110.498Z" fill="black"/>
<path d="M177.424 135.586L177.421 137.032L312.515 137.371L312.518 135.925L177.424 135.586Z" fill="black"/>
<path d="M302.985 180.257L184.302 181.098L184.311 182.544L302.994 181.703L302.985 180.257Z" fill="black"/>
<path d="M147.041 95.8868C151.051 95.8868 154.302 93.8425 154.302 91.3208C154.302 88.799 151.051 86.7547 147.041 86.7547C143.031 86.7547 139.78 88.799 139.78 91.3208C139.78 93.8425 143.031 95.8868 147.041 95.8868Z" fill="black"/>
<path d="M556.912 75.2H595.36V77.936H587.44V173.264H595.36V176H551.44V173.264H559.36V83.264H558.784L537.184 176H519.184L493.84 82.832H493.264V173.264H501.184V176H481.6V173.264H489.52V77.936H481.6V75.2H520.48L539.632 149.36L556.912 75.2ZM601.962 75.2H676.842L678.281 103.712H675.69C671.658 94.016 667.434 87.392 663.018 83.84C658.602 80.192 652.122 78.368 643.578 78.368H638.538V122.864H643.434C647.946 122.864 651.738 121.184 654.81 117.824C657.882 114.368 660.042 109.76 661.29 104H663.45V146.624H661.002C659.274 139.424 656.922 134.288 653.946 131.216C651.066 128.144 647.082 126.608 641.994 126.608H638.538V172.832H644.01C652.842 172.832 660.33 170.192 666.474 164.912C672.714 159.632 676.986 152.864 679.29 144.608H682.17L681.018 176H601.962V172.832H610.458V78.368H601.962V75.2ZM736.029 125.024H728.397V173.264H737.757V176H690.957V173.264H700.317V77.936H690.957V75.2H734.445C746.925 75.2 755.757 75.872 760.941 77.216C766.221 78.464 769.917 80 772.029 81.824C776.637 85.568 778.941 91.52 778.941 99.68C778.941 107.84 776.925 113.696 772.893 117.248C768.861 120.704 762.717 122.768 754.461 123.44V123.872C762.237 124.928 767.661 127.232 770.733 130.784C773.805 134.336 775.341 140.288 775.341 148.64V156.272C775.341 161.264 775.581 164.624 776.061 166.352C776.637 168.08 777.789 168.944 779.517 168.944C781.245 168.944 782.589 168.176 783.549 166.64C784.605 165.008 785.565 161.648 786.429 156.56L788.877 156.848C787.821 165.008 785.949 170.48 783.261 173.264C780.669 176.048 775.437 177.44 767.565 177.44C759.693 177.44 754.077 175.616 750.717 171.968C747.453 168.224 745.821 161.264 745.821 151.088V140.576C745.821 135.2 745.101 131.264 743.661 128.768C742.317 126.272 739.773 125.024 736.029 125.024ZM728.397 77.936V122.288H733.005C738.477 122.288 742.509 120.608 745.101 117.248C747.789 113.888 749.133 108.416 749.133 100.832V96.656C749.133 89.072 747.837 84.08 745.245 81.68C742.749 79.184 738.717 77.936 733.149 77.936H728.397ZM846.663 76.496C831.783 76.496 824.343 90.848 824.343 119.552V130.928C824.343 144.56 826.311 155.264 830.247 163.04C834.183 170.72 839.991 174.56 847.671 174.56C858.231 174.56 867.927 164.288 876.759 143.744H879.351L878.343 175.856H876.759C876.183 174.8 875.655 174.08 875.175 173.696C874.695 173.216 873.975 172.976 873.015 172.976C872.151 172.976 868.695 173.744 862.647 175.28C856.599 176.72 850.455 177.44 844.215 177.44C828.567 177.44 816.423 173.216 807.783 164.768C799.239 156.32 794.967 143.648 794.967 126.752C794.967 109.76 799.431 96.656 808.359 87.44C817.383 78.224 829.479 73.616 844.647 73.616C850.503 73.616 856.215 74.384 861.782 75.92C867.447 77.36 870.759 78.08 871.719 78.08C872.679 78.08 873.399 77.888 873.879 77.504C874.359 77.024 874.887 76.256 875.463 75.2H877.047L878.199 106.448H875.607C871.287 96.752 866.823 89.36 862.215 84.272C857.703 79.088 852.519 76.496 846.663 76.496ZM947.88 173.264L937.368 142.16H908.856L897.768 173.264H908.568V176H886.536V173.264H893.304L930.024 74.336H941.832L978.12 173.264H984.744V176H937.656V173.264H947.88ZM923.688 101.264L910.152 138.992H936.216L923.688 101.264ZM1062.9 75.2L1064.34 111.344H1061.6C1057.38 98.576 1053.63 89.888 1050.37 85.28C1047.1 80.576 1042.4 78.224 1036.26 78.224H1034.53V172.976H1046.77V176H994.209V172.976H1006.45V78.224H1004.58C998.433 78.224 993.681 80.672 990.32 85.568C986.961 90.368 983.265 98.96 979.233 111.344H976.497L977.937 75.2H1062.9ZM1137.39 131.504V120.848C1137.39 103.28 1136.53 92.192 1134.8 87.584C1132.88 82.304 1130.15 79.04 1126.59 77.792C1124.58 77.024 1122.13 76.64 1119.25 76.64C1116.37 76.64 1113.87 77.024 1111.76 77.792C1109.75 78.56 1108.07 79.904 1106.72 81.824C1105.38 83.744 1104.27 85.76 1103.41 87.872C1102.64 89.984 1102.02 92.96 1101.54 96.8C1100.96 102.368 1100.67 110.576 1100.67 121.424V131.792C1100.67 143.504 1101.11 151.856 1101.97 156.848C1102.93 161.744 1104.08 165.248 1105.43 167.36C1108.4 172.064 1113.01 174.416 1119.25 174.416C1126.83 174.416 1131.73 171.248 1133.94 164.912C1136.24 158.48 1137.39 147.344 1137.39 131.504ZM1118.96 177.44C1102.93 177.44 1090.93 173.12 1082.96 164.48C1075.09 155.744 1071.15 143.168 1071.15 126.752C1071.15 110.24 1075.38 97.28 1083.83 87.872C1092.37 78.368 1104.42 73.616 1119.97 73.616C1135.52 73.616 1147.23 78.128 1155.11 87.152C1163.07 96.08 1167.06 108.8 1167.06 125.312C1167.06 141.824 1163.03 154.64 1154.96 163.76C1146.99 172.88 1134.99 177.44 1118.96 177.44ZM1275.78 123.872C1275.78 143.648 1270.22 157.424 1259.08 165.2C1248.81 172.4 1234.7 176 1216.74 176H1175.99V173.264H1185.5V77.936H1175.99V75.2H1220.49C1238.92 75.2 1252.74 78.992 1261.96 86.576C1271.18 94.064 1275.78 106.496 1275.78 123.872ZM1213.58 173.264H1219.05C1228.74 173.264 1235.66 169.856 1239.78 163.04C1244.01 156.128 1246.12 144.608 1246.12 128.48V120.128C1246.12 98.528 1241.99 85.52 1233.74 81.104C1229.8 78.992 1224.23 77.936 1217.03 77.936H1213.58V173.264ZM1353.82 131.504V120.848C1353.82 103.28 1352.95 92.192 1351.22 87.584C1349.3 82.304 1346.57 79.04 1343.02 77.792C1341 77.024 1338.55 76.64 1335.67 76.64C1332.79 76.64 1330.3 77.024 1328.18 77.792C1326.17 78.56 1324.49 79.904 1323.14 81.824C1321.8 83.744 1320.7 85.76 1319.83 87.872C1319.06 89.984 1318.44 92.96 1317.96 96.8C1317.38 102.368 1317.1 110.576 1317.1 121.424V131.792C1317.1 143.504 1317.53 151.856 1318.39 156.848C1319.35 161.744 1320.5 165.248 1321.85 167.36C1324.82 172.064 1329.43 174.416 1335.67 174.416C1343.26 174.416 1348.15 171.248 1350.36 164.912C1352.66 158.48 1353.82 147.344 1353.82 131.504ZM1335.38 177.44C1319.35 177.44 1307.35 173.12 1299.38 164.48C1291.51 155.744 1287.58 143.168 1287.58 126.752C1287.58 110.24 1291.8 97.28 1300.25 87.872C1308.79 78.368 1320.84 73.616 1336.39 73.616C1351.94 73.616 1363.66 78.128 1371.53 87.152C1379.5 96.08 1383.48 108.8 1383.48 125.312C1383.48 141.824 1379.45 154.64 1371.38 163.76C1363.42 172.88 1351.42 177.44 1335.38 177.44Z" fill="white"/>
</svg>
