<svg class="object-contain"  viewBox="0 0 888 742" fill="none" xmlns="http://www.w3.org/2000/svg">
    <path d="M647.24 567.451L578.915 519.126C601.959 496.678 622.917 464.715 642.961 428.575L711.286 476.9C683.984 507.907 660.857 538.336 647.24 567.451Z" fill="black"/>
    <path d="M647.259 516C658.396 516 667.424 506.972 667.424 495.835C667.424 484.697 658.396 475.669 647.259 475.669C636.122 475.669 627.093 484.697 627.093 495.835C627.093 506.972 636.122 516 647.259 516Z" fill="black"/>
    <path opacity="0.2" d="M316.084 348.003C316.084 348.572 315.858 349.118 315.456 349.52C315.054 349.922 314.508 350.148 313.939 350.148C313.37 350.148 312.824 349.922 312.422 349.52C312.02 349.118 311.794 348.572 311.794 348.003" fill="black"/>
    <path d="M554.988 451.594H540.948C540.455 451.594 539.981 451.79 539.632 452.139C539.283 452.488 539.087 452.962 539.087 453.456V459.618C539.087 460.111 539.283 460.585 539.632 460.934C539.981 461.283 540.455 461.479 540.948 461.479H543.275V470.712H552.661V461.479H554.988C555.481 461.479 555.955 461.283 556.304 460.934C556.653 460.585 556.849 460.111 556.849 459.618V453.456C556.849 452.962 556.653 452.488 556.304 452.139C555.955 451.79 555.481 451.594 554.988 451.594V451.594Z" fill="black"/>
    <path d="M569.05 507.991C560.451 495.41 556.056 480.43 556.493 465.198C556.501 464.846 556.386 464.503 556.17 464.226C555.953 463.949 555.648 463.756 555.305 463.678V461.016H540.477V463.642H540.273C540.073 463.642 539.875 463.681 539.691 463.758C539.506 463.835 539.339 463.947 539.198 464.089C539.057 464.23 538.945 464.398 538.868 464.583C538.792 464.767 538.753 464.965 538.753 465.165C538.753 465.202 538.755 465.239 538.758 465.276C539.926 481.559 535.981 496.161 526.924 509.083C526.403 509.826 526.137 510.717 526.165 511.624L527.787 561.775C527.826 562.894 528.295 563.954 529.097 564.735C529.899 565.516 530.972 565.957 532.091 565.966H565.628C566.76 565.956 567.844 565.506 568.648 564.709C569.453 563.913 569.915 562.834 569.935 561.702L570.56 513.009C570.578 511.222 570.052 509.471 569.05 507.991V507.991Z" fill="black"/>
    <path opacity="0.2" d="M552.061 453.602C552.061 454.667 551.638 455.689 550.885 456.442C550.132 457.195 549.11 457.618 548.045 457.618C546.98 457.618 545.959 457.195 545.206 456.442C544.453 455.689 544.03 454.667 544.03 453.602" fill="black"/>
    <path d="M563.741 524.65H534.549C534.117 524.65 533.69 524.743 533.297 524.924C532.905 525.104 532.556 525.367 532.274 525.695C531.993 526.023 531.786 526.408 531.667 526.824C531.549 527.239 531.521 527.676 531.587 528.103L535.998 556.776H561.328L566.686 528.199C566.767 527.766 566.752 527.321 566.642 526.895C566.531 526.469 566.328 526.072 566.047 525.733C565.766 525.394 565.413 525.121 565.014 524.934C564.616 524.747 564.181 524.65 563.741 524.65V524.65Z" fill="black"/>
    <path d="M514.931 567.372H431.244C437.095 535.739 435.748 497.541 431.244 456.461H514.931C510.546 497.541 509.236 535.739 514.931 567.372Z" fill="black"/>
    <path d="M473.592 529.057C484.729 529.057 493.757 520.029 493.757 508.892C493.757 497.754 484.729 488.726 473.592 488.726C462.454 488.726 453.426 497.754 453.426 508.892C453.426 520.029 462.454 529.057 473.592 529.057Z" fill="black"/>
    <path d="M172.628 218.318L191.415 216.61L203.371 187.576L182.022 175.62L172.628 218.318Z" fill="black"/>
    <path d="M345.046 298.026C345.67 296.468 345.916 294.784 345.762 293.113C345.608 291.441 345.059 289.83 344.16 288.413C343.262 286.995 342.039 285.811 340.593 284.959C339.147 284.106 337.519 283.61 335.844 283.51L306.674 281.77L302.379 296.052L332.408 304.299C334.917 304.988 337.592 304.73 339.923 303.573C342.254 302.416 344.077 300.442 345.046 298.026V298.026Z" fill="black"/>
    <path d="M313.724 304.539L313.403 277.74L248.61 267.401L198.695 210.154C196.098 207.175 192.509 205.239 188.594 204.703C184.679 204.168 180.702 205.07 177.401 207.242C175.402 208.557 173.716 210.295 172.463 212.333C171.21 214.371 170.419 216.66 170.148 219.037C169.876 221.414 170.13 223.822 170.892 226.09C171.653 228.358 172.903 230.432 174.554 232.164L215.734 282.841L313.724 304.539Z" fill="black"/>
    <path d="M158.111 606.019H175.19L217.553 414.486L261.441 473.654L287.06 601.749H303.285L299.869 464.261L242.654 317.379H186.292C170.889 345.253 158.807 373.987 172.628 403.629L158.111 606.019Z" fill="black"/>
    <path d="M276.59 617.653C276.401 618.257 276.343 618.895 276.42 619.523C276.497 620.151 276.706 620.756 277.035 621.297C277.364 621.838 277.804 622.303 278.327 622.661C278.849 623.018 279.442 623.26 280.065 623.371L321.859 630.788C323.51 631.09 325.215 630.777 326.652 629.909C328.089 629.041 329.159 627.677 329.659 626.075V626.075C330.147 624.543 330.078 622.889 329.467 621.403C328.856 619.917 327.741 618.694 326.317 617.949C317.128 613.231 309.219 606.355 303.269 597.911C298.676 602.188 293.542 601.786 288.09 598.633L282.307 599.356L276.59 617.653Z" fill="black"/>
    <path d="M150.203 617.653C150.014 618.257 149.956 618.895 150.033 619.523C150.11 620.151 150.32 620.756 150.648 621.297C150.977 621.838 151.418 622.303 151.94 622.661C152.462 623.018 153.055 623.26 153.678 623.371L195.472 630.788C197.123 631.09 198.828 630.777 200.265 629.909C201.702 629.041 202.772 627.677 203.273 626.075V626.075C203.76 624.543 203.692 622.889 203.08 621.403C202.469 619.917 201.354 618.694 199.93 617.949C190.741 613.231 182.832 606.355 176.882 597.911C172.289 602.188 167.155 601.786 161.703 598.633L155.921 599.356L150.203 617.653Z" fill="black"/>
    <path d="M203.798 198.251C217.004 198.251 227.709 187.545 227.709 174.339C227.709 161.134 217.004 150.428 203.798 150.428C190.592 150.428 179.887 161.134 179.887 174.339C179.887 187.545 190.592 198.251 203.798 198.251Z" fill="black"/>
    <path d="M182.449 323.783L244.788 322.076L226.481 264.456C237.858 246.217 226.408 227.996 210.203 209.779L197.393 201.239L176.898 199.531C168.024 209.027 163.169 221.587 163.349 234.582C163.755 262.408 168.682 292.701 182.449 323.783Z" fill="black"/>
    <path d="M346.588 313.82C347.127 312.23 347.28 310.535 347.035 308.875C346.791 307.214 346.155 305.636 345.18 304.269C344.205 302.902 342.92 301.787 341.43 301.014C339.94 300.242 338.287 299.835 336.609 299.826L307.387 299.679L303.877 314.174L334.311 320.772C336.854 321.324 339.511 320.92 341.775 319.637C344.039 318.355 345.752 316.284 346.588 313.82V313.82Z" fill="black"/>
    <path d="M317.72 321.344L317.708 294.542L253.038 283.459L203.785 225.64C201.222 222.632 197.656 220.654 193.747 220.074C189.839 219.493 185.852 220.35 182.526 222.483V222.483C180.512 223.775 178.806 225.494 177.53 227.517C176.253 229.541 175.436 231.82 175.138 234.194C174.839 236.568 175.065 238.979 175.8 241.256C176.535 243.532 177.762 245.62 179.393 247.371L219.986 298.519L317.72 321.344Z" fill="black"/>
    <path d="M164.516 164.946C164.516 174.25 170.558 188.658 178.179 194.835C183.307 198.99 190.084 198.815 192.696 193.127C195.377 187.291 204.616 173.574 220.877 164.946C242.555 153.443 213.19 133.764 192.696 136.765C177.297 139.02 164.516 149.382 164.516 164.946Z" fill="black"/>
    <path d="M179.033 152.136C188.466 152.136 196.112 144.49 196.112 135.057C196.112 125.624 188.466 117.978 179.033 117.978C169.6 117.978 161.954 125.624 161.954 135.057C161.954 144.49 169.6 152.136 179.033 152.136Z" fill="black"/>
    <path d="M198.674 129.079C198.673 124.773 197.044 120.627 194.114 117.472C191.184 114.317 187.17 112.385 182.876 112.065C183.3 112.033 183.724 112 184.157 112C188.687 112 193.031 113.799 196.234 117.002C199.437 120.205 201.236 124.55 201.236 129.079C201.236 133.609 199.437 137.953 196.234 141.156C193.031 144.359 188.687 146.159 184.157 146.159C183.724 146.159 183.3 146.126 182.876 146.094C187.17 145.773 191.184 143.842 194.114 140.687C197.043 137.531 198.672 133.385 198.674 129.079Z" fill="black"/>
    <path d="M204.225 182.879C206.347 182.879 208.068 180.585 208.068 177.755C208.068 174.926 206.347 172.632 204.225 172.632C202.103 172.632 200.382 174.926 200.382 177.755C200.382 180.585 202.103 182.879 204.225 182.879Z" fill="black"/>
    <path d="M688.136 574.697H422.264L365.963 308.546H317.914V296.604H375.643L431.944 562.754H688.136V574.697Z" fill="black"/>
    <path d="M461.226 623.321C475.36 623.321 486.818 611.863 486.818 597.729C486.818 583.595 475.36 572.138 461.226 572.138C447.093 572.138 435.635 583.595 435.635 597.729C435.635 611.863 447.093 623.321 461.226 623.321Z" fill="black"/>
    <path d="M652.309 623.321C666.442 623.321 677.9 611.863 677.9 597.729C677.9 583.595 666.442 572.138 652.309 572.138C638.175 572.138 626.717 583.595 626.717 597.729C626.717 611.863 638.175 623.321 652.309 623.321Z" fill="black"/>
    <path d="M683.289 569.073H424.61L378.969 343.521H726.12C727.892 343.522 729.642 343.906 731.251 344.647C732.86 345.388 734.289 346.469 735.441 347.815C736.592 349.161 737.438 350.741 737.921 352.445C738.403 354.15 738.511 355.938 738.236 357.688L695.403 558.713C694.961 561.606 693.495 564.243 691.271 566.144C689.047 568.046 686.215 569.085 683.289 569.073V569.073ZM427.419 565.661H683.289C685.4 565.67 687.445 564.92 689.05 563.547C690.654 562.175 691.712 560.271 692.031 558.184L734.864 357.159C735.063 355.895 734.985 354.604 734.637 353.374C734.289 352.144 733.679 351.004 732.848 350.032C732.017 349.06 730.985 348.28 729.824 347.745C728.662 347.21 727.399 346.933 726.12 346.934H383.111L427.419 565.661Z" fill="black"/>
    <path d="M474.898 568.351L445.008 345.505L448.374 344.949L478.264 567.795L474.898 568.351Z" fill="black"/>
    <path d="M561.912 345.228H558.5V568.073H561.912V345.228Z" fill="black"/>
    <path d="M396.399 404.941L396.391 408.353L726.685 409.153L726.694 405.741L396.399 404.941Z" fill="black"/>
    <path d="M703.386 510.347L413.215 512.33L413.238 515.742L703.409 513.759L703.386 510.347Z" fill="black"/>
    <path d="M323.033 311.106C333.398 311.106 341.8 306.523 341.8 300.869C341.8 295.216 333.398 290.633 323.033 290.633C312.668 290.633 304.266 295.216 304.266 300.869C304.266 306.523 312.668 311.106 323.033 311.106Z" fill="black"/>
</svg>
